name rise30.9205peak61.366fall85.3838.mot
datacolumns 19
datarows 17
range 5.99164300000000 6.01831100000000
endheader
time	ground_force1_vx	ground_force1_vy	ground_force1_vz	ground_force1_px	ground_force1_py	ground_force1_pz	ground_force2_vx	ground_force2_vy	ground_force2_vz	ground_force2_px	ground_force2_py	ground_force2_pz	ground_torque1_x	ground_torque1_y	ground_torque1_z	ground_torque2_x	ground_torque2_y	ground_torque2_z	
5.99164300000000	-33.95740300000000	820.51650900000004	57.54466100000000	0.14086200000000	0.00000000000000	0.08846900000000	-10.53399200000000	38.78305600000000	6.08942000000000	0.35249400000000	0.00000000000000	-0.09176500000000	0.00000000000000	21.25907100000000	0.00000000000000	0.00000000000000	2.96940400000000	0.00000000000000	
5.99331000000000	-34.17130500000000	817.34496700000000	57.34334800000000	0.14005700000000	0.00000000000000	0.08840900000000	-11.78810500000000	45.22866900000000	6.86346700000000	0.35679300000000	0.00000000000000	-0.09224000000000	0.00000000000000	21.10145600000000	0.00000000000000	0.00000000000000	3.38447000000000	0.00000000000000	
5.99497600000000	-34.39748400000000	814.03110700000002	57.11321200000000	0.13926500000000	0.00000000000000	0.08834400000000	-12.90737200000000	51.69566600000000	7.57234600000000	0.36091900000000	0.00000000000000	-0.09266100000000	0.00000000000000	20.94109200000000	0.00000000000000	0.00000000000000	3.77641900000000	0.00000000000000	
5.99664600000000	-34.63640900000000	810.57682100000000	56.85417500000000	0.13848600000000	0.00000000000000	0.08827400000000	-13.86398600000000	58.09605700000000	8.19986800000000	0.36488500000000	0.00000000000000	-0.09303800000000	0.00000000000000	20.77823500000000	0.00000000000000	0.00000000000000	4.13662100000000	0.00000000000000	
5.99831100000000	-34.88851800000000	806.98407799999995	56.56621700000000	0.13772100000000	0.00000000000000	0.08819800000000	-14.63999800000000	64.36483699999999	8.73513300000000	0.36870500000000	0.00000000000000	-0.09337800000000	0.00000000000000	20.61313700000000	0.00000000000000	0.00000000000000	4.45881000000000	0.00000000000000	
5.99997500000000	-35.15421400000000	803.25490700000000	56.24938300000000	0.13697200000000	0.00000000000000	0.08811700000000	-15.22737900000000	70.46179300000000	9.17261500000000	0.37238700000000	0.00000000000000	-0.09368600000000	0.00000000000000	20.44605000000000	0.00000000000000	0.00000000000000	4.73922800000000	0.00000000000000	
6.00164200000000	-35.43386000000000	799.39138900000000	55.90377400000000	0.13623800000000	0.00000000000000	0.08803100000000	-15.62725400000000	76.37097500000000	9.51179600000000	0.37593900000000	0.00000000000000	-0.09396600000000	0.00000000000000	20.27722000000000	0.00000000000000	0.00000000000000	4.97654500000000	0.00000000000000	
6.00331400000000	-35.72778500000000	795.39564700000005	55.52955500000000	0.13552000000000	0.00000000000000	0.08793900000000	-15.84852400000000	82.09825499999999	9.75645800000000	0.37936700000000	0.00000000000000	-0.09422400000000	0.00000000000000	20.10688700000000	0.00000000000000	0.00000000000000	5.17158500000000	0.00000000000000	
6.00498100000000	-36.03627000000000	791.26983399999995	55.12695200000000	0.13481900000000	0.00000000000000	0.08784100000000	-15.90608200000000	87.66751600000001	9.91373800000000	0.38267600000000	0.00000000000000	-0.09446200000000	0.00000000000000	19.93528600000000	0.00000000000000	0.00000000000000	5.32692300000000	0.00000000000000	
6.00664300000000	-36.35955400000000	787.01612000000000	54.69625100000000	0.13413500000000	0.00000000000000	0.08773700000000	-15.81885300000000	93.11601800000000	9.99307000000000	0.38586900000000	0.00000000000000	-0.09468300000000	0.00000000000000	19.76264400000000	0.00000000000000	0.00000000000000	5.44640500000000	0.00000000000000	
6.00831600000000	-36.69783000000000	782.63668900000005	54.23779600000000	0.13346800000000	0.00000000000000	0.08762700000000	-15.60784400000000	98.48946800000000	10.00513200000000	0.38894900000000	0.00000000000000	-0.09489000000000	0.00000000000000	19.58918000000000	0.00000000000000	0.00000000000000	5.53463800000000	0.00000000000000	
6.00998100000000	-37.05124000000000	778.13372000000004	53.75199300000000	0.13281800000000	0.00000000000000	0.08751200000000	-15.29435600000000	103.83725200000001	9.96086800000000	0.39192000000000	0.00000000000000	-0.09508600000000	0.00000000000000	19.41510400000000	0.00000000000000	0.00000000000000	5.59650500000000	0.00000000000000	
6.01164900000000	-37.41987300000000	773.50938499999995	53.23930300000000	0.13218600000000	0.00000000000000	0.08739100000000	-14.89848700000000	109.20817500000000	9.87065500000000	0.39478300000000	0.00000000000000	-0.09527000000000	0.00000000000000	19.24061700000000	0.00000000000000	0.00000000000000	5.63673700000000	0.00000000000000	
6.01331400000000	-37.80376400000000	768.76583600000004	52.70024400000000	0.13157200000000	0.00000000000000	0.08726400000000	-14.43798100000000	114.64696200000000	9.74366200000000	0.39754000000000	0.00000000000000	-0.09544700000000	0.00000000000000	19.06590800000000	0.00000000000000	0.00000000000000	5.65956500000000	0.00000000000000	
6.01498000000000	-38.20289300000000	763.90520000000004	52.13539100000000	0.13097400000000	0.00000000000000	0.08713100000000	-13.92745200000000	120.19164700000000	9.58740700000000	0.40019100000000	0.00000000000000	-0.09561600000000	0.00000000000000	18.89115600000000	0.00000000000000	0.00000000000000	5.66847300000000	0.00000000000000	
6.01664500000000	-38.61717800000000	758.92956800000002	51.54537100000000	0.13039400000000	0.00000000000000	0.08699200000000	-13.37798700000000	125.87190600000000	9.40752400000000	0.40274000000000	0.00000000000000	-0.09577900000000	0.00000000000000	18.71653000000000	0.00000000000000	0.00000000000000	5.66604400000000	0.00000000000000	
6.01831100000000	-39.04647600000000	753.84098900000004	50.93086300000000	0.12983200000000	0.00000000000000	0.08684800000000	-12.79707900000000	131.70827700000001	9.20770100000000	0.40518500000000	0.00000000000000	-0.09593700000000	0.00000000000000	18.54218600000000	0.00000000000000	0.00000000000000	5.65390700000000	0.00000000000000	
